<svg aria-roledescription="er" role="graphics-document document" viewBox="0 0 2053.4296875 902" style="max-width: 2053.43px; background-color: white;" xmlns:xlink="http://www.w3.org/1999/xlink" xmlns="http://www.w3.org/2000/svg" width="100%" id="my-svg"><style>#my-svg{font-family:"trebuchet ms",verdana,arial,sans-serif;font-size:16px;fill:#000000;}#my-svg .error-icon{fill:#552222;}#my-svg .error-text{fill:#552222;stroke:#552222;}#my-svg .edge-thickness-normal{stroke-width:2px;}#my-svg .edge-thickness-thick{stroke-width:3.5px;}#my-svg .edge-pattern-solid{stroke-dasharray:0;}#my-svg .edge-pattern-dashed{stroke-dasharray:3;}#my-svg .edge-pattern-dotted{stroke-dasharray:2;}#my-svg .marker{fill:#000000;stroke:#000000;}#my-svg .marker.cross{stroke:#000000;}#my-svg svg{font-family:"trebuchet ms",verdana,arial,sans-serif;font-size:16px;}#my-svg .entityBox{fill:#cde498;stroke:#13540c;}#my-svg .attributeBoxOdd{fill:#ffffff;stroke:#13540c;}#my-svg .attributeBoxEven{fill:#f2f2f2;stroke:#13540c;}#my-svg .relationshipLabelBox{fill:hsl(78.1578947368, 58.4615384615%, 84.5098039216%);opacity:0.7;background-color:hsl(78.1578947368, 58.4615384615%, 84.5098039216%);}#my-svg .relationshipLabelBox rect{opacity:0.5;}#my-svg .relationshipLine{stroke:#000000;}#my-svg .entityTitleText{text-anchor:middle;font-size:18px;fill:#000000;}#my-svg #MD_PARENT_START{fill:#f5f5f5!important;stroke:#000000!important;stroke-width:1;}#my-svg #MD_PARENT_END{fill:#f5f5f5!important;stroke:#000000!important;stroke-width:1;}#my-svg :root{--mermaid-font-family:"trebuchet ms",verdana,arial,sans-serif;}</style><g/><defs><marker orient="auto" markerHeight="240" markerWidth="190" refY="7" refX="0" id="MD_PARENT_START"><path d="M 18,7 L9,13 L1,7 L9,1 Z"/></marker></defs><defs><marker orient="auto" markerHeight="28" markerWidth="20" refY="7" refX="19" id="MD_PARENT_END"><path d="M 18,7 L9,13 L1,7 L9,1 Z"/></marker></defs><defs><marker orient="auto" markerHeight="18" markerWidth="18" refY="9" refX="0" id="ONLY_ONE_START"><path d="M9,0 L9,18 M15,0 L15,18" fill="none" stroke="gray"/></marker></defs><defs><marker orient="auto" markerHeight="18" markerWidth="18" refY="9" refX="18" id="ONLY_ONE_END"><path d="M3,0 L3,18 M9,0 L9,18" fill="none" stroke="gray"/></marker></defs><defs><marker orient="auto" markerHeight="18" markerWidth="30" refY="9" refX="0" id="ZERO_OR_ONE_START"><circle r="6" cy="9" cx="21" fill="white" stroke="gray"/><path d="M9,0 L9,18" fill="none" stroke="gray"/></marker></defs><defs><marker orient="auto" markerHeight="18" markerWidth="30" refY="9" refX="30" id="ZERO_OR_ONE_END"><circle r="6" cy="9" cx="9" fill="white" stroke="gray"/><path d="M21,0 L21,18" fill="none" stroke="gray"/></marker></defs><defs><marker orient="auto" markerHeight="36" markerWidth="45" refY="18" refX="18" id="ONE_OR_MORE_START"><path d="M0,18 Q 18,0 36,18 Q 18,36 0,18 M42,9 L42,27" fill="none" stroke="gray"/></marker></defs><defs><marker orient="auto" markerHeight="36" markerWidth="45" refY="18" refX="27" id="ONE_OR_MORE_END"><path d="M3,9 L3,27 M9,18 Q27,0 45,18 Q27,36 9,18" fill="none" stroke="gray"/></marker></defs><defs><marker orient="auto" markerHeight="36" markerWidth="57" refY="18" refX="18" id="ZERO_OR_MORE_START"><circle r="6" cy="18" cx="48" fill="white" stroke="gray"/><path d="M0,18 Q18,0 36,18 Q18,36 0,18" fill="none" stroke="gray"/></marker></defs><defs><marker orient="auto" markerHeight="36" markerWidth="57" refY="18" refX="39" id="ZERO_OR_MORE_END"><circle r="6" cy="18" cx="9" fill="white" stroke="gray"/><path d="M21,18 Q39,0 57,18 Q39,36 21,18" fill="none" stroke="gray"/></marker></defs><path style="stroke: gray; fill: none;" marker-start="url(#ZERO_OR_MORE_START)" marker-end="url(#ZERO_OR_MORE_END)" d="M1119.9375,126.32984375L1055.51953125,145.94153645833333C991.1015625,165.55322916666668,862.265625,204.77661458333333,800.0522417879189,232.721640625C737.8388585758377,260.6666666666667,742.2480296516754,277.3333333333333,744.4526151895943,285.6666666666667L746.6572007275132,294" class="er relationshipLine"/><path style="stroke: gray; fill: none;" marker-start="url(#ZERO_OR_MORE_START)" marker-end="url(#ZERO_OR_MORE_END)" d="M1246.921875,164.98953125L1261.33984375,178.1579427083333C1275.7578125,191.32635416666668,1304.59375,217.66317708333335,1319.01171875,246.58158854166666C1333.4296875,275.5,1333.4296875,307,1333.4296875,338.5C1333.4296875,370,1333.4296875,401.5,1350.0963541666667,426.47222222222223C1366.7630208333333,451.4444444444444,1400.0963541666667,469.88888888888886,1416.7630208333333,479.1111111111111L1433.4296875,488.3333333333333" class="er relationshipLine"/><path style="stroke: gray; fill: none;" marker-start="url(#ZERO_OR_MORE_START)" marker-end="url(#ZERO_OR_MORE_END)" d="M1119.9375,118.03260040230283L999.1145833333334,139.02716700191903C878.2916666666666,160.0217336015352,636.6458333333334,202.01086680076762,515.8229166666666,238.75543340038382C395,275.5,395,307,395,338.5C395,370,395,401.5,411.0015021021586,427.3333333333333C427.0030042043172,453.1666666666667,459.0060084086345,473.3333333333333,475.0075105107931,483.4166666666667L491.0090126129518,493.5" class="er relationshipLine"/><path style="stroke: gray; fill: none;" marker-start="url(#ZERO_OR_MORE_START)" marker-end="url(#ZERO_OR_MORE_END)" d="M1119.9375,116.52282349318759L978.28125,137.76901957765634C836.625,159.01521566212506,553.3125,201.50760783106253,411.65625,238.50380391553128C270,275.5,270,307,270,338.5C270,370,270,401.5,270,431.0833333333333C270,460.6666666666667,270,488.3333333333333,270,516C270,543.6666666666666,270,571.3333333333334,270,599.0833333333334C270,626.8333333333334,270,654.6666666666666,270,682.5C270,710.3333333333334,270,738.1666666666666,396.4010416666667,764.980928072686C522.8020833333334,791.7951894787055,775.6041666666666,817.590378957411,902.0052083333334,830.4879736967637L1028.40625,843.3855684361164" class="er relationshipLine"/><path style="stroke: gray; fill: none;" marker-start="url(#ZERO_OR_MORE_START)" marker-end="url(#ZERO_OR_MORE_END)" d="M1246.921875,122.81532670454546L1328.0065104166667,143.0127722537879C1409.0911458333333,163.2102178030303,1571.2604166666667,203.60510890151514,1652.3450520833333,239.55255445075758C1733.4296875,275.5,1733.4296875,307,1733.4296875,338.5C1733.4296875,370,1733.4296875,401.5,1733.4296875,431.0833333333333C1733.4296875,460.6666666666667,1733.4296875,488.3333333333333,1733.4296875,516C1733.4296875,543.6666666666666,1733.4296875,571.3333333333334,1748.3997473802394,593.5C1763.369807260479,615.6666666666666,1793.309927020958,632.3333333333334,1808.2799869011976,640.6666666666666L1823.250046781437,649" class="er relationshipLine"/><path style="stroke: gray; fill: none;" marker-start="url(#ZERO_OR_ONE_START)" marker-end="url(#ONLY_ONE_END)" d="M821.859375,320.0565985576923L865.4544270833334,307.3804987980769C909.0494791666666,294.70439903846153,996.2395833333334,269.35219951923074,1045.9192708333333,248.34014923878203C1095.5989583333333,227.3280989583333,1107.7682291666667,210.65619791666666,1113.8528645833333,202.32024739583332L1119.9375,193.98429687499998" class="er relationshipLine"/><path style="stroke: gray; fill: none;" marker-start="url(#ZERO_OR_MORE_START)" marker-end="url(#ZERO_OR_MORE_END)" d="M695,347.2069247267899L590.8333333333334,361.50577060565826C486.6666666666667,375.8046164845266,278.3333333333333,404.40230824226336,174.16666666666666,427.034487454465C70,449.6666666666667,70,466.3333333333333,70,474.6666666666667L70,483" class="er relationshipLine"/><path style="stroke: gray; fill: none;" marker-start="url(#ZERO_OR_MORE_START)" marker-end="url(#ZERO_OR_MORE_END)" d="M821.859375,347.38015625L923.7877604166666,361.6501302083334C1025.7161458333333,375.9201041666667,1229.5729166666667,404.4600520833333,1336.5213824046184,427.06335937500006C1443.4698481425703,449.6666666666667,1453.5100087851406,466.3333333333333,1458.530089106426,474.6666666666667L1463.550169427711,483" class="er relationshipLine"/><path style="stroke: gray; fill: none;" marker-start="url(#ZERO_OR_MORE_START)" marker-end="url(#ZERO_OR_MORE_END)" d="M695,361.2541000622794L661.6666666666666,373.2117500518995C628.3333333333334,385.16940004151957,561.6666666666666,409.0847000207598,532.1862410579819,431.12568334371326C502.7058154492972,453.1666666666667,510.4116308985944,473.3333333333333,514.264538623243,483.4166666666667L518.1174463478916,493.5" class="er relationshipLine"/><path style="stroke: gray; fill: none;" marker-start="url(#ZERO_OR_MORE_START)" marker-end="url(#ZERO_OR_MORE_END)" d="M793.7471478174604,383L800.360904431217,391.3333333333333C806.9746610449735,399.6666666666667,820.2021742724868,416.3333333333333,826.8159308862433,438.5C833.4296875,460.6666666666667,833.4296875,488.3333333333333,833.4296875,516C833.4296875,543.6666666666666,833.4296875,571.3333333333334,851.6931605538922,595.3333333333334C869.9566336077845,619.3333333333334,906.4835797155689,639.6666666666666,924.7470527694612,649.8333333333334L943.0105258233533,660" class="er relationshipLine"/><path style="stroke: gray; fill: none;" marker-start="url(#ZERO_OR_ONE_START)" marker-end="url(#ONLY_ONE_END)" d="M109.75903614457832,483L119.7991967871486,474.6666666666667C129.8393574297189,466.3333333333333,149.91967871485943,449.6666666666667,247.4598393574297,427.2811021566051C345,404.89553764654335,520,376.79107529308675,607.5,362.73884411635845L695,348.6866129396301" class="er relationshipLine"/><path style="stroke: gray; fill: none;" marker-start="url(#ZERO_OR_ONE_START)" marker-end="url(#ZERO_OR_ONE_END)" d="M1433.4296875,523.5454545454545L1350.0963541666667,536.1212121212121C1266.7630208333333,548.6969696969696,1100.0963541666667,573.8484848484849,1022.8508451846307,596.5909090909091C945.6053362025947,619.3333333333334,957.7809849051896,639.6666666666666,963.868809256487,649.8333333333334L969.9566336077844,660" class="er relationshipLine"/><path style="stroke: gray; fill: none;" marker-start="url(#ZERO_OR_ONE_START)" marker-end="url(#ONLY_ONE_END)" d="M1503.309205572289,483L1508.329285893574,474.6666666666667C1513.3493662148594,466.3333333333333,1523.3895268574297,449.6666666666667,1528.4096071787146,425.5833333333333C1533.4296875,401.5,1533.4296875,370,1533.4296875,338.5C1533.4296875,307,1533.4296875,275.5,1485.6783854166667,241.05877604166668C1437.9270833333333,206.61755208333332,1342.4244791666667,169.23510416666667,1294.6731770833333,150.54388020833332L1246.921875,131.85265625" class="er relationshipLine"/><path style="stroke: gray; fill: none;" marker-start="url(#ZERO_OR_ONE_START)" marker-end="url(#ONLY_ONE_END)" d="M1533.4296875,488.3333333333333L1550.0963541666667,479.1111111111111C1566.7630208333333,469.88888888888886,1600.0963541666667,451.4444444444444,1481.5013020833333,427.6139565972223C1362.90625,403.78346875000005,1092.3828125,374.5669375,957.12109375,359.958671875L821.859375,345.35040625" class="er relationshipLine"/><path style="stroke: gray; fill: none;" marker-start="url(#ZERO_OR_MORE_START)" marker-end="url(#ZERO_OR_MORE_END)" d="M1533.4296875,527.8571428571429L1583.4296875,539.7142857142858C1633.4296875,551.5714285714286,1733.4296875,575.2857142857143,1788.4197074600797,595.4761904761905C1843.4097274201597,615.6666666666666,1853.3897673403196,632.3333333333334,1858.3797873003994,640.6666666666666L1863.369807260479,649" class="er relationshipLine"/><path style="stroke: gray; fill: none;" marker-start="url(#ZERO_OR_ONE_START)" marker-end="url(#ONLY_ONE_END)" d="M1903.489567739521,649L1908.4795876996006,640.6666666666666C1913.4696076596804,632.3333333333334,1923.4496475798403,615.6666666666666,1861.7730008732535,595.0370370370371C1800.0963541666667,574.4074074074074,1666.7630208333333,549.8148148148148,1600.0963541666667,537.5185185185185L1533.4296875,525.2222222222222" class="er relationshipLine"/><path style="stroke: gray; fill: none;" marker-start="url(#ZERO_OR_ONE_START)" marker-end="url(#ONLY_ONE_END)" d="M1943.609328218563,649L1958.5793880988024,640.6666666666666C1973.549447979042,632.3333333333334,2003.489567739521,615.6666666666666,2018.4596276197606,593.5C2033.4296875,571.3333333333334,2033.4296875,543.6666666666666,2033.4296875,516C2033.4296875,488.3333333333333,2033.4296875,460.6666666666667,2033.4296875,431.0833333333333C2033.4296875,401.5,2033.4296875,370,2033.4296875,338.5C2033.4296875,307,2033.4296875,275.5,1902.3450520833333,238.62224111519606C1771.2604166666667,201.74448223039215,1509.0911458333333,159.48896446078433,1378.0065104166667,138.3612055759804L1246.921875,117.23344669117647" class="er relationshipLine"/><path style="stroke: gray; fill: none;" marker-start="url(#ZERO_OR_ONE_START)" marker-end="url(#ONLY_ONE_END)" d="M1883.4296875,716L1883.4296875,724.3333333333334C1883.4296875,732.6666666666666,1883.4296875,749.3333333333334,1883.4296875,766C1883.4296875,782.6666666666666,1883.4296875,799.3333333333334,1883.4296875,807.6666666666666L1883.4296875,816" class="er relationshipLine"/><path style="stroke: gray; fill: none;" marker-start="url(#ZERO_OR_ONE_START)" marker-end="url(#ONLY_ONE_END)" d="M545.2258800828313,493.5L553.5215667356928,483.4166666666667C561.8172533885541,473.3333333333333,578.4086266942771,453.1666666666667,586.7043133471385,427.3333333333333C595,401.5,595,370,595,338.5C595,307,595,275.5,682.4895833333334,239.38040755541985C769.9791666666666,203.26081511083967,944.9583333333334,162.52163022167935,1032.4479166666667,142.1520377770992L1119.9375,121.78244533251902" class="er relationshipLine"/><path style="stroke: gray; fill: none;" marker-start="url(#ZERO_OR_ONE_START)" marker-end="url(#ONLY_ONE_END)" d="M576.71484375,495.9240348457076L602.833984375,485.43669570475635C628.953125,474.9493565638051,681.19140625,453.9746782819025,709.5151324129189,435.1540058076179C737.8388585758377,416.3333333333333,742.2480296516754,399.6666666666667,744.4526151895943,391.3333333333333L746.6572007275132,383" class="er relationshipLine"/><path style="stroke: gray; fill: none;" marker-start="url(#ZERO_OR_ONE_START)" marker-end="url(#ONLY_ONE_END)" d="M1138.453125,818.5536979166667L1154.2825520833333,809.7947482638889C1170.1119791666667,801.0357986111112,1201.7708333333333,783.5178993055556,1217.6002604166667,760.8422829861111C1233.4296875,738.1666666666666,1233.4296875,710.3333333333334,1233.4296875,682.5C1233.4296875,654.6666666666666,1233.4296875,626.8333333333334,1233.4296875,599.0833333333334C1233.4296875,571.3333333333334,1233.4296875,543.6666666666666,1233.4296875,516C1233.4296875,488.3333333333333,1233.4296875,460.6666666666667,1233.4296875,431.0833333333333C1233.4296875,401.5,1233.4296875,370,1233.4296875,338.5C1233.4296875,307,1233.4296875,275.5,1230.3883249695864,251.41666666666666C1227.3469624391728,227.33333333333334,1221.2642373783456,210.66666666666666,1218.222874847932,202.33333333333334L1215.1815123175184,194" class="er relationshipLine"/><path style="stroke: gray; fill: none;" marker-start="url(#ZERO_OR_MORE_START)" marker-end="url(#ZERO_OR_MORE_END)" d="M1138.453125,838.8512326388889L1204.2825520833333,826.7093605324075C1270.1119791666667,814.567488425926,1401.7708333333333,790.283744212963,1384.2669270833333,765.4903569549664C1366.7630208333333,740.6969696969696,1200.0963541666667,715.3939393939394,1116.7630208333333,702.7424242424244L1033.4296875,690.0909090909091" class="er relationshipLine"/><path style="stroke: gray; fill: none;" marker-start="url(#ZERO_OR_ONE_START)" marker-end="url(#ONLY_ONE_END)" d="M983.4296875,705L983.4296875,715.1666666666666C983.4296875,725.3333333333334,983.4296875,745.6666666666666,993.4698481425703,764.1666666666666C1003.5100087851406,782.6666666666666,1023.5903300702812,799.3333333333334,1033.6304907128515,807.6666666666666L1043.6706513554218,816" class="er relationshipLine"/><path style="stroke: gray; fill: none;" marker-start="url(#ZERO_OR_ONE_START)" marker-end="url(#ONLY_ONE_END)" d="M996.9027413922156,660L1002.990565743513,649.8333333333334C1009.0783900948104,639.6666666666666,1021.2540387974053,619.3333333333334,1027.3418631487027,595.3333333333334C1033.4296875,571.3333333333334,1033.4296875,543.6666666666666,1033.4296875,516C1033.4296875,488.3333333333333,1033.4296875,460.6666666666667,998.16796875,434.71612452651516C962.90625,408.76558238636363,892.3828125,384.5311647727273,857.12109375,372.41395596590905L821.859375,360.2967471590909" class="er relationshipLine"/><path style="stroke: gray; fill: none;" marker-start="url(#ZERO_OR_MORE_START)" marker-end="url(#ZERO_OR_MORE_END)" d="M1023.8488491766467,660L1042.112322230539,649.8333333333334C1060.375795284431,639.6666666666666,1096.9027413922156,619.3333333333334,1165.1662144461077,597.3095238095239C1233.4296875,575.2857142857143,1333.4296875,551.5714285714286,1383.4296875,539.7142857142858L1433.4296875,527.8571428571429" class="er relationshipLine"/><g transform="translate(1797.875,816 )" id="entity-votescommentstypes-2832809b-6470-50a9-9b6f-771fce9cd9cb"><rect height="66" width="171.109375" y="0" x="0" class="er entityBox"/><text style="dominant-baseline: middle; text-anchor: middle; font-size: 12px;" transform="translate(85.5546875,12)" y="0" x="0" id="text-entity-votescommentstypes-2832809b-6470-50a9-9b6f-771fce9cd9cb" class="er entityLabel">votes_comments_types</text><rect height="21" width="85.5546875" y="24" x="0" class="er attributeBoxOdd"/><text style="dominant-baseline: middle; font-size: 10.2px;" transform="translate(5,34.5)" y="0" x="0" id="text-entity-votescommentstypes-2832809b-6470-50a9-9b6f-771fce9cd9cb-attr-1-type" class="er entityLabel">UPVOTE</text><rect height="21" width="85.5546875" y="24" x="85.5546875" class="er attributeBoxOdd"/><text style="dominant-baseline: middle; font-size: 10.2px;" transform="translate(90.5546875,34.5)" y="0" x="0" id="text-entity-votescommentstypes-2832809b-6470-50a9-9b6f-771fce9cd9cb-attr-1-name" class="er entityLabel">UPVOTE</text><rect height="21" width="85.5546875" y="45" x="0" class="er attributeBoxEven"/><text style="dominant-baseline: middle; font-size: 10.2px;" transform="translate(5,55.5)" y="0" x="0" id="text-entity-votescommentstypes-2832809b-6470-50a9-9b6f-771fce9cd9cb-attr-2-type" class="er entityLabel">DOWNVOTE</text><rect height="21" width="85.5546875" y="45" x="85.5546875" class="er attributeBoxEven"/><text style="dominant-baseline: middle; font-size: 10.2px;" transform="translate(90.5546875,55.5)" y="0" x="0" id="text-entity-votescommentstypes-2832809b-6470-50a9-9b6f-771fce9cd9cb-attr-2-name" class="er entityLabel">DOWNVOTE</text></g><g transform="translate(1119.9375,20 )" id="entity-users-33ae1e26-be31-5c1d-bf65-e859e9d0308e"><rect height="174" width="126.984375" y="0" x="0" class="er entityBox"/><text style="dominant-baseline: middle; text-anchor: middle; font-size: 12px;" transform="translate(63.4921875,12)" y="0" x="0" id="text-entity-users-33ae1e26-be31-5c1d-bf65-e859e9d0308e" class="er entityLabel">users</text><rect height="21" width="59.28125" y="24" x="0" class="er attributeBoxOdd"/><text style="dominant-baseline: middle; font-size: 10.2px;" transform="translate(5,34.5)" y="0" x="0" id="text-entity-users-33ae1e26-be31-5c1d-bf65-e859e9d0308e-attr-1-type" class="er entityLabel">String</text><rect height="21" width="67.703125" y="24" x="59.28125" class="er attributeBoxOdd"/><text style="dominant-baseline: middle; font-size: 10.2px;" transform="translate(64.28125,34.5)" y="0" x="0" id="text-entity-users-33ae1e26-be31-5c1d-bf65-e859e9d0308e-attr-1-name" class="er entityLabel">id</text><rect height="21" width="59.28125" y="45" x="0" class="er attributeBoxEven"/><text style="dominant-baseline: middle; font-size: 10.2px;" transform="translate(5,55.5)" y="0" x="0" id="text-entity-users-33ae1e26-be31-5c1d-bf65-e859e9d0308e-attr-2-type" class="er entityLabel">String</text><rect height="21" width="67.703125" y="45" x="59.28125" class="er attributeBoxEven"/><text style="dominant-baseline: middle; font-size: 10.2px;" transform="translate(64.28125,55.5)" y="0" x="0" id="text-entity-users-33ae1e26-be31-5c1d-bf65-e859e9d0308e-attr-2-name" class="er entityLabel">username</text><rect height="21" width="59.28125" y="66" x="0" class="er attributeBoxOdd"/><text style="dominant-baseline: middle; font-size: 10.2px;" transform="translate(5,76.5)" y="0" x="0" id="text-entity-users-33ae1e26-be31-5c1d-bf65-e859e9d0308e-attr-3-type" class="er entityLabel">String</text><rect height="21" width="67.703125" y="66" x="59.28125" class="er attributeBoxOdd"/><text style="dominant-baseline: middle; font-size: 10.2px;" transform="translate(64.28125,76.5)" y="0" x="0" id="text-entity-users-33ae1e26-be31-5c1d-bf65-e859e9d0308e-attr-3-name" class="er entityLabel">email</text><rect height="22" width="59.28125" y="87" x="0" class="er attributeBoxEven"/><text style="dominant-baseline: middle; font-size: 10.2px;" transform="translate(5,98)" y="0" x="0" id="text-entity-users-33ae1e26-be31-5c1d-bf65-e859e9d0308e-attr-4-type" class="er entityLabel">Boolean</text><rect height="22" width="67.703125" y="87" x="59.28125" class="er attributeBoxEven"/><text style="dominant-baseline: middle; font-size: 10.2px;" transform="translate(64.28125,98)" y="0" x="0" id="text-entity-users-33ae1e26-be31-5c1d-bf65-e859e9d0308e-attr-4-name" class="er entityLabel">is_active</text><rect height="21" width="59.28125" y="109" x="0" class="er attributeBoxOdd"/><text style="dominant-baseline: middle; font-size: 10.2px;" transform="translate(5,119.5)" y="0" x="0" id="text-entity-users-33ae1e26-be31-5c1d-bf65-e859e9d0308e-attr-5-type" class="er entityLabel">String</text><rect height="21" width="67.703125" y="109" x="59.28125" class="er attributeBoxOdd"/><text style="dominant-baseline: middle; font-size: 10.2px;" transform="translate(64.28125,119.5)" y="0" x="0" id="text-entity-users-33ae1e26-be31-5c1d-bf65-e859e9d0308e-attr-5-name" class="er entityLabel">password</text><rect height="22" width="59.28125" y="130" x="0" class="er attributeBoxEven"/><text style="dominant-baseline: middle; font-size: 10.2px;" transform="translate(5,141)" y="0" x="0" id="text-entity-users-33ae1e26-be31-5c1d-bf65-e859e9d0308e-attr-6-type" class="er entityLabel">DateTime</text><rect height="22" width="67.703125" y="130" x="59.28125" class="er attributeBoxEven"/><text style="dominant-baseline: middle; font-size: 10.2px;" transform="translate(64.28125,141)" y="0" x="0" id="text-entity-users-33ae1e26-be31-5c1d-bf65-e859e9d0308e-attr-6-name" class="er entityLabel">created_at</text><rect height="22" width="59.28125" y="152" x="0" class="er attributeBoxOdd"/><text style="dominant-baseline: middle; font-size: 10.2px;" transform="translate(5,163)" y="0" x="0" id="text-entity-users-33ae1e26-be31-5c1d-bf65-e859e9d0308e-attr-7-type" class="er entityLabel">DateTime</text><rect height="22" width="67.703125" y="152" x="59.28125" class="er attributeBoxOdd"/><text style="dominant-baseline: middle; font-size: 10.2px;" transform="translate(64.28125,163)" y="0" x="0" id="text-entity-users-33ae1e26-be31-5c1d-bf65-e859e9d0308e-attr-7-name" class="er entityLabel">updated_at</text></g><g transform="translate(695,294 )" id="entity-memes-254be3ca-5eb1-52f7-9805-2c831d143757"><rect height="89" width="126.859375" y="0" x="0" class="er entityBox"/><text style="dominant-baseline: middle; text-anchor: middle; font-size: 12px;" transform="translate(63.4296875,12)" y="0" x="0" id="text-entity-memes-254be3ca-5eb1-52f7-9805-2c831d143757" class="er entityLabel">memes</text><rect height="21" width="59.28125" y="24" x="0" class="er attributeBoxOdd"/><text style="dominant-baseline: middle; font-size: 10.2px;" transform="translate(5,34.5)" y="0" x="0" id="text-entity-memes-254be3ca-5eb1-52f7-9805-2c831d143757-attr-1-type" class="er entityLabel">String</text><rect height="21" width="67.578125" y="24" x="59.28125" class="er attributeBoxOdd"/><text style="dominant-baseline: middle; font-size: 10.2px;" transform="translate(64.28125,34.5)" y="0" x="0" id="text-entity-memes-254be3ca-5eb1-52f7-9805-2c831d143757-attr-1-name" class="er entityLabel">id</text><rect height="22" width="59.28125" y="45" x="0" class="er attributeBoxEven"/><text style="dominant-baseline: middle; font-size: 10.2px;" transform="translate(5,56)" y="0" x="0" id="text-entity-memes-254be3ca-5eb1-52f7-9805-2c831d143757-attr-2-type" class="er entityLabel">String</text><rect height="22" width="67.578125" y="45" x="59.28125" class="er attributeBoxEven"/><text style="dominant-baseline: middle; font-size: 10.2px;" transform="translate(64.28125,56)" y="0" x="0" id="text-entity-memes-254be3ca-5eb1-52f7-9805-2c831d143757-attr-2-name" class="er entityLabel">content_uri</text><rect height="22" width="59.28125" y="67" x="0" class="er attributeBoxOdd"/><text style="dominant-baseline: middle; font-size: 10.2px;" transform="translate(5,78)" y="0" x="0" id="text-entity-memes-254be3ca-5eb1-52f7-9805-2c831d143757-attr-3-type" class="er entityLabel">DateTime</text><rect height="22" width="67.578125" y="67" x="59.28125" class="er attributeBoxOdd"/><text style="dominant-baseline: middle; font-size: 10.2px;" transform="translate(64.28125,78)" y="0" x="0" id="text-entity-memes-254be3ca-5eb1-52f7-9805-2c831d143757-attr-3-name" class="er entityLabel">created_at</text></g><g transform="translate(20,483 )" id="entity-tags-6d8c4510-222a-5f9e-b73d-d896901739b8"><rect height="66" width="100" y="0" x="0" class="er entityBox"/><text style="dominant-baseline: middle; text-anchor: middle; font-size: 12px;" transform="translate(50,12)" y="0" x="0" id="text-entity-tags-6d8c4510-222a-5f9e-b73d-d896901739b8" class="er entityLabel">tags</text><rect height="21" width="50.75" y="24" x="0" class="er attributeBoxOdd"/><text style="dominant-baseline: middle; font-size: 10.2px;" transform="translate(5,34.5)" y="0" x="0" id="text-entity-tags-6d8c4510-222a-5f9e-b73d-d896901739b8-attr-1-type" class="er entityLabel">String</text><rect height="21" width="49.25" y="24" x="50.75" class="er attributeBoxOdd"/><text style="dominant-baseline: middle; font-size: 10.2px;" transform="translate(55.75,34.5)" y="0" x="0" id="text-entity-tags-6d8c4510-222a-5f9e-b73d-d896901739b8-attr-1-name" class="er entityLabel">id</text><rect height="21" width="50.75" y="45" x="0" class="er attributeBoxEven"/><text style="dominant-baseline: middle; font-size: 10.2px;" transform="translate(5,55.5)" y="0" x="0" id="text-entity-tags-6d8c4510-222a-5f9e-b73d-d896901739b8-attr-2-type" class="er entityLabel">String</text><rect height="21" width="49.25" y="45" x="50.75" class="er attributeBoxEven"/><text style="dominant-baseline: middle; font-size: 10.2px;" transform="translate(55.75,55.5)" y="0" x="0" id="text-entity-tags-6d8c4510-222a-5f9e-b73d-d896901739b8-attr-2-name" class="er entityLabel">name</text></g><g transform="translate(1433.4296875,483 )" id="entity-comments-ee4794a7-91e9-54fd-896e-9c6c78f4e4b0"><rect height="66" width="100" y="0" x="0" class="er entityBox"/><text style="dominant-baseline: middle; text-anchor: middle; font-size: 12px;" transform="translate(50,12)" y="0" x="0" id="text-entity-comments-ee4794a7-91e9-54fd-896e-9c6c78f4e4b0" class="er entityLabel">comments</text><rect height="21" width="44.85858154296875" y="24" x="0" class="er attributeBoxOdd"/><text style="dominant-baseline: middle; font-size: 10.2px;" transform="translate(5,34.5)" y="0" x="0" id="text-entity-comments-ee4794a7-91e9-54fd-896e-9c6c78f4e4b0-attr-1-type" class="er entityLabel">String</text><rect height="21" width="34.5640869140625" y="24" x="44.85858154296875" class="er attributeBoxOdd"/><text style="dominant-baseline: middle; font-size: 10.2px;" transform="translate(49.85858154296875,34.5)" y="0" x="0" id="text-entity-comments-ee4794a7-91e9-54fd-896e-9c6c78f4e4b0-attr-1-name" class="er entityLabel">id</text><rect height="21" width="20.57733154296875" y="24" x="79.42266845703125" class="er attributeBoxOdd"/><text style="dominant-baseline: middle; font-size: 10.2px;" transform="translate(84.42266845703125,34.5)" y="0" x="0" id="text-entity-comments-ee4794a7-91e9-54fd-896e-9c6c78f4e4b0-attr-1-comment" class="er entityLabel"/><rect height="21" width="44.85858154296875" y="45" x="0" class="er attributeBoxEven"/><text style="dominant-baseline: middle; font-size: 10.2px;" transform="translate(5,55.5)" y="0" x="0" id="text-entity-comments-ee4794a7-91e9-54fd-896e-9c6c78f4e4b0-attr-2-type" class="er entityLabel">String</text><rect height="21" width="34.5640869140625" y="45" x="44.85858154296875" class="er attributeBoxEven"/><text style="dominant-baseline: middle; font-size: 10.2px;" transform="translate(49.85858154296875,55.5)" y="0" x="0" id="text-entity-comments-ee4794a7-91e9-54fd-896e-9c6c78f4e4b0-attr-2-name" class="er entityLabel">text</text><rect height="21" width="20.57733154296875" y="45" x="79.42266845703125" class="er attributeBoxEven"/><text style="dominant-baseline: middle; font-size: 10.2px;" transform="translate(84.42266845703125,55.5)" y="0" x="0" id="text-entity-comments-ee4794a7-91e9-54fd-896e-9c6c78f4e4b0-attr-2-comment" class="er entityLabel">❓</text></g><g transform="translate(1802.1484375,649 )" id="entity-votescomments-806cb725-9dfa-5c75-adab-188a64a29bbe"><rect height="67" width="162.5625" y="0" x="0" class="er entityBox"/><text style="dominant-baseline: middle; text-anchor: middle; font-size: 12px;" transform="translate(81.28125,12)" y="0" x="0" id="text-entity-votescomments-806cb725-9dfa-5c75-adab-188a64a29bbe" class="er entityLabel">votes_comments</text><rect height="21" width="129.796875" y="24" x="0" class="er attributeBoxOdd"/><text style="dominant-baseline: middle; font-size: 10.2px;" transform="translate(5,34.5)" y="0" x="0" id="text-entity-votescomments-806cb725-9dfa-5c75-adab-188a64a29bbe-attr-1-type" class="er entityLabel">String</text><rect height="21" width="32.765625" y="24" x="129.796875" class="er attributeBoxOdd"/><text style="dominant-baseline: middle; font-size: 10.2px;" transform="translate(134.796875,34.5)" y="0" x="0" id="text-entity-votescomments-806cb725-9dfa-5c75-adab-188a64a29bbe-attr-1-name" class="er entityLabel">id</text><rect height="22" width="129.796875" y="45" x="0" class="er attributeBoxEven"/><text style="dominant-baseline: middle; font-size: 10.2px;" transform="translate(5,56)" y="0" x="0" id="text-entity-votescomments-806cb725-9dfa-5c75-adab-188a64a29bbe-attr-2-type" class="er entityLabel">votes_comments_types</text><rect height="22" width="32.765625" y="45" x="129.796875" class="er attributeBoxEven"/><text style="dominant-baseline: middle; font-size: 10.2px;" transform="translate(134.796875,56)" y="0" x="0" id="text-entity-votescomments-806cb725-9dfa-5c75-adab-188a64a29bbe-attr-2-name" class="er entityLabel">type</text></g><g transform="translate(476.71484375,493.5 )" id="entity-likes-6137dc77-5837-5901-930b-08bb73392c69"><rect height="45" width="100" y="0" x="0" class="er entityBox"/><text style="dominant-baseline: middle; text-anchor: middle; font-size: 12px;" transform="translate(50,12)" y="0" x="0" id="text-entity-likes-6137dc77-5837-5901-930b-08bb73392c69" class="er entityLabel">likes</text><rect height="21" width="60.546875" y="24" x="0" class="er attributeBoxOdd"/><text style="dominant-baseline: middle; font-size: 10.2px;" transform="translate(5,34.5)" y="0" x="0" id="text-entity-likes-6137dc77-5837-5901-930b-08bb73392c69-attr-1-type" class="er entityLabel">String</text><rect height="21" width="39.453125" y="24" x="60.546875" class="er attributeBoxOdd"/><text style="dominant-baseline: middle; font-size: 10.2px;" transform="translate(65.546875,34.5)" y="0" x="0" id="text-entity-likes-6137dc77-5837-5901-930b-08bb73392c69-attr-1-name" class="er entityLabel">id</text></g><g transform="translate(1028.40625,816 )" id="entity-folders-783fa521-d4be-5a8d-ae70-ae75d3308746"><rect height="66" width="110.046875" y="0" x="0" class="er entityBox"/><text style="dominant-baseline: middle; text-anchor: middle; font-size: 12px;" transform="translate(55.0234375,12)" y="0" x="0" id="text-entity-folders-783fa521-d4be-5a8d-ae70-ae75d3308746" class="er entityLabel">folders</text><rect height="21" width="40.40625" y="24" x="0" class="er attributeBoxOdd"/><text style="dominant-baseline: middle; font-size: 10.2px;" transform="translate(5,34.5)" y="0" x="0" id="text-entity-folders-783fa521-d4be-5a8d-ae70-ae75d3308746-attr-1-type" class="er entityLabel">String</text><rect height="21" width="69.640625" y="24" x="40.40625" class="er attributeBoxOdd"/><text style="dominant-baseline: middle; font-size: 10.2px;" transform="translate(45.40625,34.5)" y="0" x="0" id="text-entity-folders-783fa521-d4be-5a8d-ae70-ae75d3308746-attr-1-name" class="er entityLabel">id</text><rect height="21" width="40.40625" y="45" x="0" class="er attributeBoxEven"/><text style="dominant-baseline: middle; font-size: 10.2px;" transform="translate(5,55.5)" y="0" x="0" id="text-entity-folders-783fa521-d4be-5a8d-ae70-ae75d3308746-attr-2-type" class="er entityLabel">String</text><rect height="21" width="69.640625" y="45" x="40.40625" class="er attributeBoxEven"/><text style="dominant-baseline: middle; font-size: 10.2px;" transform="translate(45.40625,55.5)" y="0" x="0" id="text-entity-folders-783fa521-d4be-5a8d-ae70-ae75d3308746-attr-2-name" class="er entityLabel">folderName</text></g><g transform="translate(933.4296875,660 )" id="entity-repubs-845f04a4-6f5d-5f89-ab2a-0f024bec147b"><rect height="45" width="100" y="0" x="0" class="er entityBox"/><text style="dominant-baseline: middle; text-anchor: middle; font-size: 12px;" transform="translate(50,12)" y="0" x="0" id="text-entity-repubs-845f04a4-6f5d-5f89-ab2a-0f024bec147b" class="er entityLabel">repubs</text><rect height="21" width="60.546875" y="24" x="0" class="er attributeBoxOdd"/><text style="dominant-baseline: middle; font-size: 10.2px;" transform="translate(5,34.5)" y="0" x="0" id="text-entity-repubs-845f04a4-6f5d-5f89-ab2a-0f024bec147b-attr-1-type" class="er entityLabel">String</text><rect height="21" width="39.453125" y="24" x="60.546875" class="er attributeBoxOdd"/><text style="dominant-baseline: middle; font-size: 10.2px;" transform="translate(65.546875,34.5)" y="0" x="0" id="text-entity-repubs-845f04a4-6f5d-5f89-ab2a-0f024bec147b-attr-1-name" class="er entityLabel">id</text></g><rect height="14" width="44.40625" y="183.06529235839844" x="893.0607299804688" class="er relationshipLabelBox"/><text style="text-anchor: middle; dominant-baseline: middle; font-size: 12px;" y="190.06529235839844" x="915.2638549804688" id="rel1" class="er relationshipLabel">memes</text><rect height="14" width="63.265625" y="327.616455078125" x="1301.7945556640625" class="er relationshipLabelBox"/><text style="text-anchor: middle; dominant-baseline: middle; font-size: 12px;" y="334.616455078125" x="1333.4273681640625" id="rel2" class="er relationshipLabel">comments</text><rect height="14" width="26.828125" y="201.06396484375" x="623.277587890625" class="er relationshipLabelBox"/><text style="text-anchor: middle; dominant-baseline: middle; font-size: 12px;" y="208.06396484375" x="636.691650390625" id="rel3" class="er relationshipLabel">likes</text><rect height="14" width="41.09375" y="450.9024658203125" x="249.453125" class="er relationshipLabelBox"/><text style="text-anchor: middle; dominant-baseline: middle; font-size: 12px;" y="457.9024658203125" x="270" id="rel4" class="er relationshipLabel">folders</text><rect height="14" width="102.046875" y="247.8143310546875" x="1631.538330078125" class="er relationshipLabelBox"/><text style="text-anchor: middle; dominant-baseline: middle; font-size: 12px;" y="254.8143310546875" x="1682.561767578125" id="rel5" class="er relationshipLabel">votes_comments</text><rect height="14" width="39.611328125" y="265.65643310546875" x="959.4508666992188" class="er relationshipLabelBox"/><text style="text-anchor: middle; dominant-baseline: middle; font-size: 12px;" y="272.65643310546875" x="979.2565307617188" id="rel6" class="er relationshipLabel">author</text><rect height="14" width="25.9375" y="385.9472351074219" x="357.63287353515625" class="er relationshipLabelBox"/><text style="text-anchor: middle; dominant-baseline: middle; font-size: 12px;" y="392.9472351074219" x="370.60162353515625" id="rel7" class="er relationshipLabel">tags</text><rect height="14" width="63.265625" y="387.646728515625" x="1118.8509521484375" class="er relationshipLabelBox"/><text style="text-anchor: middle; dominant-baseline: middle; font-size: 12px;" y="394.646728515625" x="1150.4837646484375" id="rel8" class="er relationshipLabel">comments</text><rect height="14" width="26.828125" y="398.6494445800781" x="565.2781372070312" class="er relationshipLabelBox"/><text style="text-anchor: middle; dominant-baseline: middle; font-size: 12px;" y="405.6494445800781" x="578.6921997070312" id="rel9" class="er relationshipLabel">likes</text><rect height="14" width="41.15625" y="535.2853393554688" x="813.4405517578125" class="er relationshipLabelBox"/><text style="text-anchor: middle; dominant-baseline: middle; font-size: 12px;" y="542.2853393554688" x="834.0186767578125" id="rel10" class="er relationshipLabel">repubs</text><rect height="14" width="38.15625" y="390.9505920410156" x="377.59832763671875" class="er relationshipLabelBox"/><text style="text-anchor: middle; dominant-baseline: middle; font-size: 12px;" y="397.9505920410156" x="396.67645263671875" id="rel11" class="er relationshipLabel">meme</text><rect height="14" width="34.90625" y="557.0425415039062" x="1158.1507568359375" class="er relationshipLabelBox"/><text style="text-anchor: middle; dominant-baseline: middle; font-size: 12px;" y="564.0425415039062" x="1175.6038818359375" id="rel12" class="er relationshipLabel">repub</text><rect height="14" width="39.611328125" y="234.5270233154297" x="1466.517333984375" class="er relationshipLabelBox"/><text style="text-anchor: middle; dominant-baseline: middle; font-size: 12px;" y="241.5270233154297" x="1486.322998046875" id="rel13" class="er relationshipLabel">author</text><rect height="14" width="38.15625" y="382.8728332519531" x="1202.7218017578125" class="er relationshipLabelBox"/><text style="text-anchor: middle; dominant-baseline: middle; font-size: 12px;" y="389.8728332519531" x="1221.7999267578125" id="rel14" class="er relationshipLabel">meme</text><rect height="14" width="89.84375" y="563.700439453125" x="1662.565185546875" class="er relationshipLabelBox"/><text style="text-anchor: middle; dominant-baseline: middle; font-size: 12px;" y="570.700439453125" x="1707.487060546875" id="rel15" class="er relationshipLabel">like_comments</text><rect height="14" width="63.265625" y="557.74951171875" x="1708.798828125" class="er relationshipLabelBox"/><text style="text-anchor: middle; dominant-baseline: middle; font-size: 12px;" y="564.74951171875" x="1740.431640625" id="rel16" class="er relationshipLabel">comments</text><rect height="14" width="26.240234375" y="215.0233154296875" x="1823.441162109375" class="er relationshipLabelBox"/><text style="text-anchor: middle; dominant-baseline: middle; font-size: 12px;" y="222.0233154296875" x="1836.561279296875" id="rel17" class="er relationshipLabel">user</text><rect height="14" width="65.140625" y="759" x="1850.859375" class="er relationshipLabelBox"/><text style="text-anchor: middle; dominant-baseline: middle; font-size: 12px;" y="766" x="1883.4296875" id="rel18" class="er relationshipLabel">enum:type</text><rect height="14" width="26.240234375" y="208.69195556640625" x="736.1932373046875" class="er relationshipLabelBox"/><text style="text-anchor: middle; dominant-baseline: middle; font-size: 12px;" y="215.69195556640625" x="749.3133544921875" id="rel19" class="er relationshipLabel">user</text><rect height="14" width="38.15625" y="447.5242614746094" x="655.37646484375" class="er relationshipLabelBox"/><text style="text-anchor: middle; dominant-baseline: middle; font-size: 12px;" y="454.5242614746094" x="674.45458984375" id="rel20" class="er relationshipLabel">meme</text><rect height="14" width="37.14453125" y="520.1644897460938" x="1214.857421875" class="er relationshipLabelBox"/><text style="text-anchor: middle; dominant-baseline: middle; font-size: 12px;" y="527.1644897460938" x="1233.4296875" id="rel21" class="er relationshipLabel">owner</text><rect height="14" width="41.15625" y="738.4810180664062" x="1321.211181640625" class="er relationshipLabelBox"/><text style="text-anchor: middle; dominant-baseline: middle; font-size: 12px;" y="745.4810180664062" x="1341.789306640625" id="rel22" class="er relationshipLabel">repubs</text><rect height="14" width="34.900390625" y="762.2593383789062" x="979.054931640625" class="er relationshipLabelBox"/><text style="text-anchor: middle; dominant-baseline: middle; font-size: 12px;" y="769.2593383789062" x="996.505126953125" id="rel23" class="er relationshipLabel">folder</text><rect height="14" width="38.15625" y="445.7589416503906" x="998.1630859375" class="er relationshipLabelBox"/><text style="text-anchor: middle; dominant-baseline: middle; font-size: 12px;" y="452.7589416503906" x="1017.2412109375" id="rel24" class="er relationshipLabel">meme</text><rect height="14" width="63.265625" y="572.930419921875" x="1192.1263427734375" class="er relationshipLabelBox"/><text style="text-anchor: middle; dominant-baseline: middle; font-size: 12px;" y="579.930419921875" x="1223.7591552734375" id="rel25" class="er relationshipLabel">comments</text></svg>